<mxfile host="Electron" modified="2024-04-16T09:12:48.891Z" agent="Mozilla/5.0 (Windows NT 10.0; Win64; x64) AppleWebKit/537.36 (KHTML, like Gecko) draw.io/24.0.4 Chrome/120.0.6099.109 Electron/28.1.0 Safari/537.36" etag="ydssEeuvdlAZONvC8PfE" version="24.0.4" type="device">
  <diagram name="Page-1" id="9f46799a-70d6-7492-0946-bef42562c5a5">
    <mxGraphModel dx="1221" dy="831" grid="1" gridSize="10" guides="1" tooltips="1" connect="1" arrows="1" fold="1" page="1" pageScale="1" pageWidth="1100" pageHeight="850" background="none" math="0" shadow="0">
      <root>
        <mxCell id="0" />
        <mxCell id="1" parent="0" />
        <mxCell id="b0v7cO3Zx_docfpdoHkM-30" style="edgeStyle=orthogonalEdgeStyle;rounded=0;orthogonalLoop=1;jettySize=auto;html=1;entryX=0.5;entryY=0;entryDx=0;entryDy=0;" edge="1" parent="1" source="78961159f06e98e8-17" target="b0v7cO3Zx_docfpdoHkM-25">
          <mxGeometry relative="1" as="geometry" />
        </mxCell>
        <mxCell id="b0v7cO3Zx_docfpdoHkM-31" value="Обучается на" style="edgeLabel;html=1;align=center;verticalAlign=middle;resizable=0;points=[];" vertex="1" connectable="0" parent="b0v7cO3Zx_docfpdoHkM-30">
          <mxGeometry x="0.1273" relative="1" as="geometry">
            <mxPoint as="offset" />
          </mxGeometry>
        </mxCell>
        <mxCell id="78961159f06e98e8-17" value="Модель" style="swimlane;html=1;fontStyle=1;align=center;verticalAlign=top;childLayout=stackLayout;horizontal=1;startSize=29;horizontalStack=0;resizeParent=1;resizeLast=0;collapsible=1;marginBottom=0;swimlaneFillColor=#ffffff;rounded=0;shadow=0;comic=0;labelBackgroundColor=none;strokeWidth=1;fillColor=none;fontFamily=Verdana;fontSize=12" parent="1" vertex="1">
          <mxGeometry x="110" y="140" width="160" height="90" as="geometry">
            <mxRectangle x="109" y="41" width="90" height="30" as="alternateBounds" />
          </mxGeometry>
        </mxCell>
        <mxCell id="78961159f06e98e8-19" value="" style="line;html=1;strokeWidth=1;fillColor=none;align=left;verticalAlign=middle;spacingTop=-1;spacingLeft=3;spacingRight=3;rotatable=0;labelPosition=right;points=[];portConstraint=eastwest;" parent="78961159f06e98e8-17" vertex="1">
          <mxGeometry y="29" width="160" height="8" as="geometry" />
        </mxCell>
        <mxCell id="78961159f06e98e8-20" value="+ обучение(данные)" style="text;html=1;strokeColor=none;fillColor=none;align=left;verticalAlign=top;spacingLeft=4;spacingRight=4;whiteSpace=wrap;overflow=hidden;rotatable=0;points=[[0,0.5],[1,0.5]];portConstraint=eastwest;" parent="78961159f06e98e8-17" vertex="1">
          <mxGeometry y="37" width="160" height="26" as="geometry" />
        </mxCell>
        <mxCell id="78961159f06e98e8-27" value="+ предсказание(данные)" style="text;html=1;strokeColor=none;fillColor=none;align=left;verticalAlign=top;spacingLeft=4;spacingRight=4;whiteSpace=wrap;overflow=hidden;rotatable=0;points=[[0,0.5],[1,0.5]];portConstraint=eastwest;" parent="78961159f06e98e8-17" vertex="1">
          <mxGeometry y="63" width="160" height="26" as="geometry" />
        </mxCell>
        <mxCell id="78961159f06e98e8-108" value="Событие ИБ" style="swimlane;html=1;fontStyle=1;align=center;verticalAlign=top;childLayout=stackLayout;horizontal=1;startSize=26;horizontalStack=0;resizeParent=1;resizeLast=0;collapsible=1;marginBottom=0;swimlaneFillColor=#ffffff;rounded=0;shadow=0;comic=0;labelBackgroundColor=none;strokeWidth=1;fillColor=none;fontFamily=Verdana;fontSize=12" parent="1" vertex="1">
          <mxGeometry x="440" y="130" width="160" height="110" as="geometry">
            <mxRectangle x="780" y="119.99999999999983" width="110" height="30" as="alternateBounds" />
          </mxGeometry>
        </mxCell>
        <mxCell id="78961159f06e98e8-109" value="+ идентификатор" style="text;html=1;strokeColor=none;fillColor=none;align=left;verticalAlign=top;spacingLeft=4;spacingRight=4;whiteSpace=wrap;overflow=hidden;rotatable=0;points=[[0,0.5],[1,0.5]];portConstraint=eastwest;" parent="78961159f06e98e8-108" vertex="1">
          <mxGeometry y="26" width="160" height="22" as="geometry" />
        </mxCell>
        <mxCell id="78961159f06e98e8-110" value="+ уровень угрозы" style="text;html=1;strokeColor=none;fillColor=none;align=left;verticalAlign=top;spacingLeft=4;spacingRight=4;whiteSpace=wrap;overflow=hidden;rotatable=0;points=[[0,0.5],[1,0.5]];portConstraint=eastwest;" parent="78961159f06e98e8-108" vertex="1">
          <mxGeometry y="48" width="160" height="24" as="geometry" />
        </mxCell>
        <mxCell id="b0v7cO3Zx_docfpdoHkM-6" value="+ данные события" style="text;html=1;strokeColor=none;fillColor=none;align=left;verticalAlign=top;spacingLeft=4;spacingRight=4;whiteSpace=wrap;overflow=hidden;rotatable=0;points=[[0,0.5],[1,0.5]];portConstraint=eastwest;" vertex="1" parent="78961159f06e98e8-108">
          <mxGeometry y="72" width="160" height="24" as="geometry" />
        </mxCell>
        <mxCell id="78961159f06e98e8-116" value="" style="line;html=1;strokeWidth=1;fillColor=none;align=left;verticalAlign=middle;spacingTop=-1;spacingLeft=3;spacingRight=3;rotatable=0;labelPosition=right;points=[];portConstraint=eastwest;" parent="78961159f06e98e8-108" vertex="1">
          <mxGeometry y="96" width="160" height="14" as="geometry" />
        </mxCell>
        <mxCell id="b0v7cO3Zx_docfpdoHkM-23" style="edgeStyle=orthogonalEdgeStyle;rounded=0;orthogonalLoop=1;jettySize=auto;html=1;" edge="1" parent="1" source="b0v7cO3Zx_docfpdoHkM-17">
          <mxGeometry relative="1" as="geometry">
            <mxPoint x="500" y="240" as="targetPoint" />
            <Array as="points">
              <mxPoint x="500" y="240" />
            </Array>
          </mxGeometry>
        </mxCell>
        <mxCell id="b0v7cO3Zx_docfpdoHkM-24" value="Сохраняет" style="edgeLabel;html=1;align=center;verticalAlign=middle;resizable=0;points=[];" vertex="1" connectable="0" parent="b0v7cO3Zx_docfpdoHkM-23">
          <mxGeometry x="-0.1413" y="-1" relative="1" as="geometry">
            <mxPoint y="-6" as="offset" />
          </mxGeometry>
        </mxCell>
        <mxCell id="b0v7cO3Zx_docfpdoHkM-17" value="База данных" style="swimlane;html=1;fontStyle=1;align=center;verticalAlign=top;childLayout=stackLayout;horizontal=1;startSize=25;horizontalStack=0;resizeParent=1;resizeLast=0;collapsible=1;marginBottom=0;swimlaneFillColor=#ffffff;rounded=0;shadow=0;comic=0;labelBackgroundColor=none;strokeWidth=1;fillColor=none;fontFamily=Verdana;fontSize=12" vertex="1" parent="1">
          <mxGeometry x="360" y="347.5" width="170" height="95" as="geometry">
            <mxRectangle x="109" y="41" width="90" height="30" as="alternateBounds" />
          </mxGeometry>
        </mxCell>
        <mxCell id="b0v7cO3Zx_docfpdoHkM-18" value="" style="line;html=1;strokeWidth=1;fillColor=none;align=left;verticalAlign=middle;spacingTop=-1;spacingLeft=3;spacingRight=3;rotatable=0;labelPosition=right;points=[];portConstraint=eastwest;" vertex="1" parent="b0v7cO3Zx_docfpdoHkM-17">
          <mxGeometry y="25" width="170" height="8" as="geometry" />
        </mxCell>
        <mxCell id="b0v7cO3Zx_docfpdoHkM-19" value="+ сохранение события" style="text;html=1;strokeColor=none;fillColor=none;align=left;verticalAlign=top;spacingLeft=4;spacingRight=4;whiteSpace=wrap;overflow=hidden;rotatable=0;points=[[0,0.5],[1,0.5]];portConstraint=eastwest;" vertex="1" parent="b0v7cO3Zx_docfpdoHkM-17">
          <mxGeometry y="33" width="170" height="26" as="geometry" />
        </mxCell>
        <mxCell id="b0v7cO3Zx_docfpdoHkM-20" value="+ получение списка событй" style="text;html=1;strokeColor=none;fillColor=none;align=left;verticalAlign=top;spacingLeft=4;spacingRight=4;whiteSpace=wrap;overflow=hidden;rotatable=0;points=[[0,0.5],[1,0.5]];portConstraint=eastwest;" vertex="1" parent="b0v7cO3Zx_docfpdoHkM-17">
          <mxGeometry y="59" width="170" height="26" as="geometry" />
        </mxCell>
        <mxCell id="b0v7cO3Zx_docfpdoHkM-21" style="edgeStyle=orthogonalEdgeStyle;rounded=0;orthogonalLoop=1;jettySize=auto;html=1;entryX=0;entryY=0.5;entryDx=0;entryDy=0;" edge="1" parent="1" source="78961159f06e98e8-27" target="78961159f06e98e8-109">
          <mxGeometry relative="1" as="geometry" />
        </mxCell>
        <mxCell id="b0v7cO3Zx_docfpdoHkM-22" value="Обрабатывает" style="edgeLabel;html=1;align=center;verticalAlign=middle;resizable=0;points=[];" vertex="1" connectable="0" parent="b0v7cO3Zx_docfpdoHkM-21">
          <mxGeometry x="-0.0843" y="2" relative="1" as="geometry">
            <mxPoint as="offset" />
          </mxGeometry>
        </mxCell>
        <mxCell id="b0v7cO3Zx_docfpdoHkM-25" value="Данные обучения" style="swimlane;html=1;fontStyle=1;align=center;verticalAlign=top;childLayout=stackLayout;horizontal=1;startSize=26;horizontalStack=0;resizeParent=1;resizeLast=0;collapsible=1;marginBottom=0;swimlaneFillColor=#ffffff;rounded=0;shadow=0;comic=0;labelBackgroundColor=none;strokeWidth=1;fillColor=none;fontFamily=Verdana;fontSize=12" vertex="1" parent="1">
          <mxGeometry x="110" y="340" width="160" height="110" as="geometry">
            <mxRectangle x="780" y="119.99999999999983" width="110" height="30" as="alternateBounds" />
          </mxGeometry>
        </mxCell>
        <mxCell id="b0v7cO3Zx_docfpdoHkM-26" value="+ идентификатор" style="text;html=1;strokeColor=none;fillColor=none;align=left;verticalAlign=top;spacingLeft=4;spacingRight=4;whiteSpace=wrap;overflow=hidden;rotatable=0;points=[[0,0.5],[1,0.5]];portConstraint=eastwest;" vertex="1" parent="b0v7cO3Zx_docfpdoHkM-25">
          <mxGeometry y="26" width="160" height="22" as="geometry" />
        </mxCell>
        <mxCell id="b0v7cO3Zx_docfpdoHkM-28" value="+ сетевой трафик" style="text;html=1;strokeColor=none;fillColor=none;align=left;verticalAlign=top;spacingLeft=4;spacingRight=4;whiteSpace=wrap;overflow=hidden;rotatable=0;points=[[0,0.5],[1,0.5]];portConstraint=eastwest;" vertex="1" parent="b0v7cO3Zx_docfpdoHkM-25">
          <mxGeometry y="48" width="160" height="24" as="geometry" />
        </mxCell>
        <mxCell id="b0v7cO3Zx_docfpdoHkM-27" value="+ уровень угрозы" style="text;html=1;strokeColor=none;fillColor=none;align=left;verticalAlign=top;spacingLeft=4;spacingRight=4;whiteSpace=wrap;overflow=hidden;rotatable=0;points=[[0,0.5],[1,0.5]];portConstraint=eastwest;" vertex="1" parent="b0v7cO3Zx_docfpdoHkM-25">
          <mxGeometry y="72" width="160" height="24" as="geometry" />
        </mxCell>
        <mxCell id="b0v7cO3Zx_docfpdoHkM-29" value="" style="line;html=1;strokeWidth=1;fillColor=none;align=left;verticalAlign=middle;spacingTop=-1;spacingLeft=3;spacingRight=3;rotatable=0;labelPosition=right;points=[];portConstraint=eastwest;" vertex="1" parent="b0v7cO3Zx_docfpdoHkM-25">
          <mxGeometry y="96" width="160" height="14" as="geometry" />
        </mxCell>
        <mxCell id="b0v7cO3Zx_docfpdoHkM-40" value="Отчет по безопасности" style="swimlane;html=1;fontStyle=1;align=center;verticalAlign=top;childLayout=stackLayout;horizontal=1;startSize=30;horizontalStack=0;resizeParent=1;resizeLast=0;collapsible=1;marginBottom=0;swimlaneFillColor=#ffffff;rounded=0;shadow=0;comic=0;labelBackgroundColor=none;strokeWidth=1;fillColor=none;fontFamily=Verdana;fontSize=12" vertex="1" parent="1">
          <mxGeometry x="650" y="160" width="160" height="120" as="geometry">
            <mxRectangle x="710" y="240" width="110" height="30" as="alternateBounds" />
          </mxGeometry>
        </mxCell>
        <mxCell id="b0v7cO3Zx_docfpdoHkM-41" value="+ дата отчета" style="text;html=1;strokeColor=none;fillColor=none;align=left;verticalAlign=top;spacingLeft=4;spacingRight=4;whiteSpace=wrap;overflow=hidden;rotatable=0;points=[[0,0.5],[1,0.5]];portConstraint=eastwest;" vertex="1" parent="b0v7cO3Zx_docfpdoHkM-40">
          <mxGeometry y="30" width="160" height="22" as="geometry" />
        </mxCell>
        <mxCell id="b0v7cO3Zx_docfpdoHkM-42" value="+ сводка угроз" style="text;html=1;strokeColor=none;fillColor=none;align=left;verticalAlign=top;spacingLeft=4;spacingRight=4;whiteSpace=wrap;overflow=hidden;rotatable=0;points=[[0,0.5],[1,0.5]];portConstraint=eastwest;" vertex="1" parent="b0v7cO3Zx_docfpdoHkM-40">
          <mxGeometry y="52" width="160" height="24" as="geometry" />
        </mxCell>
        <mxCell id="b0v7cO3Zx_docfpdoHkM-43" value="+ рекомендации по&lt;div&gt;&amp;nbsp;безопасности&lt;/div&gt;" style="text;html=1;strokeColor=none;fillColor=none;align=left;verticalAlign=top;spacingLeft=4;spacingRight=4;whiteSpace=wrap;overflow=hidden;rotatable=0;points=[[0,0.5],[1,0.5]];portConstraint=eastwest;" vertex="1" parent="b0v7cO3Zx_docfpdoHkM-40">
          <mxGeometry y="76" width="160" height="34" as="geometry" />
        </mxCell>
        <mxCell id="b0v7cO3Zx_docfpdoHkM-44" value="" style="line;html=1;strokeWidth=1;fillColor=none;align=left;verticalAlign=middle;spacingTop=-1;spacingLeft=3;spacingRight=3;rotatable=0;labelPosition=right;points=[];portConstraint=eastwest;" vertex="1" parent="b0v7cO3Zx_docfpdoHkM-40">
          <mxGeometry y="110" width="160" height="10" as="geometry" />
        </mxCell>
        <mxCell id="b0v7cO3Zx_docfpdoHkM-48" style="edgeStyle=orthogonalEdgeStyle;rounded=0;orthogonalLoop=1;jettySize=auto;html=1;entryX=1;entryY=0.5;entryDx=0;entryDy=0;" edge="1" parent="1" source="b0v7cO3Zx_docfpdoHkM-43" target="b0v7cO3Zx_docfpdoHkM-19">
          <mxGeometry relative="1" as="geometry" />
        </mxCell>
        <mxCell id="b0v7cO3Zx_docfpdoHkM-49" value="Получение событий" style="edgeLabel;html=1;align=center;verticalAlign=middle;resizable=0;points=[];" vertex="1" connectable="0" parent="b0v7cO3Zx_docfpdoHkM-48">
          <mxGeometry x="0.1773" y="1" relative="1" as="geometry">
            <mxPoint y="1" as="offset" />
          </mxGeometry>
        </mxCell>
      </root>
    </mxGraphModel>
  </diagram>
</mxfile>
